<svg width="322" height="20" xmlns="http://www.w3.org/2000/svg">

 <g>
  <title>background</title>
  <rect fill="none" id="canvas_background" height="402" width="582" y="-1" x="-1"/>
 </g>
 <g>
  <title>Layer 1</title>
  <path id="svg_1" d="m0,0l321.859,0l0,20l-321.859,0c0,0 0,-20 0,-20z" fill="#0C0C0C"/>
  <path id="svg_2" d="m0,0l1,0l0,20l-1,0l0,-20zm321,0l1,0l0,20l-1,0l0,-20z" fill="#F6F9FA"/>
  <path id="svg_3" d="m312.5,4.905l0,11.345l-8.104,0l0,-11.345l2.431,0l0,-0.405l3.241,0l0,0.405l2.432,0zm-26.539,11.142l11.345,0l0,-11.345l-11.345,11.345zm-1.911,-8.522c-4.595,-4.26 -11.773,-3.989 -16.033,0.607c2.822,2.617 8.32,7.713 8.32,7.713s5.923,-6.388 7.713,-8.32z" fill="#FFFFFF" opacity="0.6"/>
  <path id="svg_5" d="m280.587,11.267c-2.523,-2.339 -6.464,-2.19 -8.803,0.333c1.549,1.437 4.568,4.235 4.568,4.235s3.253,-3.507 4.235,-4.568zm5.357,4.78l5.963,0l0,-5.963l-5.963,5.963zm26.556,0.203l-8.104,0l0,-5.749l8.104,0l0,5.749z" fill="#FFFFFF"/>
  <path id="svg_6" d="m152.077,11.76c0,1.144 -0.264,2.039 -0.793,2.687s-1.271,0.971 -2.229,0.971c-0.953,0 -1.698,-0.325 -2.235,-0.974c-0.538,-0.65 -0.807,-1.544 -0.807,-2.684l0,-2.926c0,-1.139 0.266,-2.034 0.796,-2.683s1.275,-0.974 2.232,-0.974c0.953,0 1.696,0.325 2.232,0.974s0.803,1.544 0.803,2.683l0,2.926l0.001,0zm-0.37,-2.926c0,-1.002 -0.23,-1.801 -0.69,-2.396s-1.119,-0.892 -1.976,-0.892c-0.861,0 -1.52,0.297 -1.976,0.892s-0.684,1.394 -0.684,2.396l0,2.912c0,0.989 0.231,1.786 0.694,2.393s1.122,0.909 1.979,0.909c0.852,0 1.507,-0.302 1.965,-0.905c0.458,-0.604 0.687,-1.403 0.687,-2.396l0,-2.913l0.001,0zm8.122,-3.145c-0.998,1.121 -1.83,2.399 -2.495,3.835s-0.998,3.054 -0.998,4.854l0,0.896l-0.369,0l0,-0.896c0,-1.649 0.305,-3.206 0.916,-4.669s1.445,-2.803 2.502,-4.02l-5.913,0l0,-0.369l6.357,0l0,0.369zm2.296,3.097l-0.588,0l0,-0.889l0.588,0l0,0.889zm0,6.487l-0.588,0l0,-0.889l0.588,0l0,0.889zm7.766,-3.513c0,1.144 -0.264,2.039 -0.793,2.687s-1.271,0.971 -2.229,0.971c-0.953,0 -1.697,-0.325 -2.235,-0.974c-0.538,-0.65 -0.807,-1.544 -0.807,-2.684l0,-2.926c0,-1.139 0.266,-2.034 0.796,-2.683c0.531,-0.649 1.275,-0.974 2.232,-0.974c0.953,0 1.696,0.325 2.232,0.974c0.535,0.649 0.803,1.544 0.803,2.683l0,2.926l0.001,0zm-0.369,-2.926c0,-1.002 -0.23,-1.801 -0.69,-2.396s-1.118,-0.892 -1.976,-0.892c-0.861,0 -1.52,0.297 -1.976,0.892s-0.684,1.394 -0.684,2.396l0,2.912c0,0.989 0.231,1.786 0.694,2.393c0.462,0.606 1.121,0.909 1.979,0.909c0.852,0 1.508,-0.302 1.965,-0.905c0.459,-0.604 0.688,-1.403 0.688,-2.396l0,-2.913zm7.895,-1.053c0,0.556 -0.167,1.042 -0.503,1.456c-0.334,0.415 -0.771,0.707 -1.309,0.875c0.619,0.173 1.125,0.483 1.514,0.93c0.391,0.447 0.585,0.971 0.585,1.572c0,0.875 -0.296,1.561 -0.889,2.058s-1.329,0.745 -2.208,0.745c-0.939,0 -1.715,-0.247 -2.328,-0.741c-0.612,-0.495 -0.919,-1.182 -0.919,-2.062c0,-0.602 0.199,-1.127 0.599,-1.576c0.398,-0.449 0.924,-0.758 1.575,-0.926c-0.569,-0.168 -1.028,-0.46 -1.374,-0.875s-0.52,-0.9 -0.52,-1.456c0,-0.83 0.277,-1.471 0.834,-1.924s1.262,-0.68 2.119,-0.68c0.807,0 1.479,0.228 2.017,0.684s0.807,1.096 0.807,1.92zm-0.088,4.867c0,-0.697 -0.266,-1.264 -0.797,-1.699c-0.53,-0.435 -1.176,-0.653 -1.938,-0.653c-0.811,0 -1.491,0.218 -2.041,0.653c-0.549,0.435 -0.823,1.001 -0.823,1.699c0,0.733 0.273,1.317 0.82,1.75s1.233,0.649 2.058,0.649c0.766,0 1.41,-0.218 1.935,-0.653c0.524,-0.434 0.786,-1.016 0.786,-1.746zm-0.281,-4.901c0,-0.647 -0.239,-1.176 -0.718,-1.586s-1.057,-0.615 -1.736,-0.615c-0.742,0 -1.359,0.197 -1.85,0.591c-0.489,0.394 -0.734,0.931 -0.734,1.61c0,0.661 0.247,1.189 0.742,1.586c0.494,0.396 1.113,0.595 1.855,0.595c0.684,0 1.262,-0.199 1.732,-0.598c0.474,-0.399 0.709,-0.927 0.709,-1.583z" fill="#FFFFFF"/>
 </g>
</svg>