<?xml
        version="1.0" standalone="no"?>
<!DOCTYPE svg PUBLIC "-//W3C//DTD SVG 1.1//EN" "http://www.w3.org/Graphics/SVG/1.1/DTD/svg11.dtd" >
<svg xmlns="http://www.w3.org/2000/svg">
    <metadata>Generated by IcoMoon</metadata>
    <defs>
        <font id="new-iconfonts" horiz-adv-x="1024">
            <font-face units-per-em="1024" ascent="960" descent="-64"/>
            <missing-glyph horiz-adv-x="1024"/>
            <glyph unicode="&#x20;" horiz-adv-x="512" d=""/>
            <glyph unicode="&#xe900;" glyph-name="laboratory" d="M688 672c26.509 0 48 21.49 48 48s-21.491 48-48 48c-26.509 0-48-21.49-48-48s21.491-48 48-48zM928 768c53.020 0 96 42.981 96 96s-42.98 96-96 96c-53.020 0-96-42.981-96-96s42.98-96 96-96zM801.004 587.545l-20.214-14.744v-527.721c-24.138-72.685-67.26-109.058-129.357-109.080h-3.027c-62.47 3.838-107.943 39.864-136.424 108.102v526.75l-22.241 21.614v38.33l14.154 10.807h275.878l21.229-17.678v-36.38h0.001zM556.428 545.302v-500.216c17.482-38.6 49.499-61.862 96.001-69.772 38.424 5.373 67.051 28.635 85.896 69.773v500.214l-181.898 0.001zM554.737 384h183.266l1.414-1.187v-374.48c-13.154-45.446-45.096-68.105-95.807-67.968-39.568 2.985-69.64 25.253-90.257 66.78v375.668l1.382 1.187h0.002zM452.354 781.148l1.006-75.681-12.12-0.978v-232.903l48.493-85.508v-114.966l-99.012 187.696v224.075h-139.472v-223.096l-204.117-403.891c-4.735-16.467-3.73-29.908 3.018-40.293 7.461-12.072 22.281-20.245 44.469-24.564h422.417l55.581-53.073-482.046-1.957c-65.409 21.155-95.391 60.787-89.942 118.901 0 7.812 0.689 16.331 2.035 25.551l206.159 391.134v232.895h-13.149l-1.006 75.68 257.686 0.979zM422.041 277.983l69.727-127.752-0.121-109.596c5.679-21.916 14.393-38.64 26.141-50.173-56.829-32.157-168.664-37.275-335.503-15.353l-32.602 7.703c-30.531 6.623-127.038 2.714-122.797 32.117 1.34 5.298 0 61.303 0 65.156l122.797 197.897h272.357z"/>
            <glyph unicode="&#xe901;" glyph-name="location" horiz-adv-x="768" d="M383.974-64c-191.111 0-383.974 48.319-383.974 156.26 0 84.284 132.062 136.578 254.798 149.412l6.698 0.718-169.625 253.187c-5.462 9.099-10.614 18.82-15.2 28.637l-4.483 8.428-0.721 3.352c-14.891 35.964-22.465 73.653-22.465 111.915 0 172.063 150.251 312.089 334.921 312.089s334.921-140.026 334.921-312.089c0-38.311-7.574-75.951-22.517-111.915l-2.267-5.411h0.206l-1.752-3.304c-4.895-10.727-10.305-21.023-16.179-30.792l-292.67-452.642-69.303 105.546-2.628-0.239c-112.276-8.955-183.898-37.832-202.653-53.922l-3.246-2.969 3.401-2.921c24.527-21.215 118.665-54.737 267.988-55.742h13.345c149.066 0.958 243.41 34.432 268.143 55.599l3.504 2.969-3.555 2.921c-13.706 11.302-63.635 33.618-140.461 46.739l58.998 88.019c123.096-25.86 190.802-74.658 190.802-137.632-0.052-107.893-192.863-156.212-384.026-156.212v0zM383.974 816.287c-78.732 0-142.779-59.717-142.779-133.13 0-73.317 64.047-133.034 142.779-133.034 78.784 0 142.883 59.669 142.883 133.034 0 73.413-64.099 133.13-142.883 133.13v0z"/>
            <glyph unicode="&#xe902;" glyph-name="broadAfter" horiz-adv-x="1103" d="M1060.355 960h-42.414v-85.334h-127.243v85.334h-678.629v-85.334h-127.243v85.334h-42.414c-23.37 0-42.414-19.158-42.414-42.666v-938.668c0-23.509 19.045-42.666 42.414-42.666h42.414v42.666h127.243v-42.666h678.629v42.666h127.243v-42.666h42.414c23.37 0 42.414 19.158 42.414 42.666v938.668c0 23.509-19.045 42.666-42.414 42.666zM212.069 106.666h-127.243v128h127.243v-128zM212.069 362.666h-127.243v128h127.243v-128zM212.069 618.665h-127.243v128h127.243v-128zM1017.94 106.666h-127.243v128h127.243v-128zM1017.94 362.666h-127.243v128h127.243v-128zM1017.94 618.665h-127.243v128h127.243v-128z"/>
            <glyph unicode="&#xe903;" glyph-name="broadBefor" horiz-adv-x="1103" d="M1060.355 960h-42.414v-85.334h-127.243v85.334h-678.629v-85.334h-127.243v85.334h-42.414c-23.37 0-42.414-19.158-42.414-42.666v-938.668c0-23.509 19.045-42.666 42.414-42.666h42.414v42.666h127.243v-42.666h678.629v42.666h127.243v-42.666h42.414c23.37 0 42.414 19.158 42.414 42.666v938.668c0 23.509-19.045 42.666-42.414 42.666zM212.069 106.666h-127.243v128h127.243v-128zM212.069 362.666h-127.243v128h127.243v-128zM212.069 618.665h-127.243v128h127.243v-128zM745.98 420.011l-275.82-161.835c-4.496-2.262-9.416-3.328-14.293-3.328-5.853 0-11.536 1.579-16.712 4.651-9.331 5.675-15.015 15.83-15.015 26.667v323.626c0 10.88 5.684 21.034 15.015 26.709 9.416 5.718 21.165 6.23 30.962 1.281l275.82-161.791c10.73-5.333 17.517-16.128 17.517-27.988s-6.787-22.656-17.474-27.988v-0.002zM1017.94 106.666h-127.243v128h127.243v-128zM1017.94 362.666h-127.243v128h127.243v-128zM1017.94 618.665h-127.243v128h127.243v-128z"/>
            <glyph unicode="&#xe904;" glyph-name="note" horiz-adv-x="1229" d="M1105.536 959.002h-982.273c-67.531 0-122.17-57.488-122.17-127.75l-0.614-766.503c0-70.263 55.253-127.75 122.784-127.75h982.273c67.531 0 122.784 57.488 122.784 127.75v766.503c0 70.263-55.253 127.75-122.784 127.75zM1105.536 703.501l-491.136-319.376-491.136 319.376v127.75l491.136-319.376 491.136 319.376v-127.75z"/>
            <glyph unicode="&#xe905;" glyph-name="upload" d="M291.329 604.57c-19.573 0-32.072 5.112-37.499 15.335s-1.623 23.448 11.41 39.674c13.775 16.926 29.718 37.383 47.83 61.372s36.954 48.847 56.527 74.574c19.573 25.727 38.6 50.766 57.083 75.116s34.971 45.327 49.465 62.929c13.056 16.226 25.556 24.689 37.499 25.388s24.802-6.703 38.577-22.206c13.775-16.226 29.533-35.792 47.274-58.698s36.038-46.884 54.892-71.934c18.854-25.050 37.51-49.558 55.97-73.525s34.948-44.774 49.465-62.422c15.955-19.047 22.112-34.912 18.471-47.595s-15.596-18.675-35.864-17.975c-12.314 0-28.257-0.35-47.83-1.049s-35.876-1.049-48.909-1.049c-14.494-0.7-23.376-5.112-26.646-13.236s-4.905-19.228-4.905-33.31v-51.826c0-19.047 0.186-38.444 0.557-58.19s0.557-39.143 0.557-58.19v-52.909c0-7.064-0.545-14.466-1.635-22.206s-3.629-14.793-7.618-21.157c-3.989-6.364-9.786-11.656-17.393-15.876s-17.938-6.341-30.994-6.364c-15.213 0-29.162-0.181-41.847-0.542s-27.724-0.542-45.117-0.542c-23.909 0-40.038 5.461-48.387 16.384s-12.511 28.379-12.488 52.368v41.265c0 16.226-0.186 33.501-0.557 51.826s-0.557 36.661-0.557 55.008v49.727c0 21.168-2.18 37.913-6.54 50.235s-14.146 18.144-29.359 17.467c-10.876 0-24.106 0.35-39.69 1.049s-29.533 1.049-41.847 1.049l0.104 0.034zM1020.748 64c4.36-16.926 3.455-33.152-2.713-48.678s-15.769-29.101-28.802-40.723c-13.033-11.622-28.976-20.796-47.83-27.521s-39.145-10.076-60.875-10.054h-737.037c-26.089 0-49.094 4.581-69.015 13.744s-35.864 20.446-47.83 33.851c-11.966 13.405-19.944 28.040-23.932 43.905s-3.444 30.15 1.635 42.856c4.36 9.885 8.708 20.108 13.045 30.669 3.618 9.162 7.966 19.566 13.045 31.211s10.517 23.459 16.314 35.442l41.325 97.322h123.941l-46.752-133.306h700.059l-46.752 133.306h118.48c15.213-35.973 28.988-68.413 41.325-97.322 5.079-12.705 10.157-25.050 15.236-37.033s9.612-22.737 13.601-32.26c3.989-9.523 7.247-17.636 9.775-24.339s3.792-10.404 3.792-11.103l-0.035 0.034z"/>
            <glyph unicode="&#xe906;" glyph-name="reward" d="M512 960c-282.811 0-512-229.228-512-512s229.228-512 512-512c282.772 0 512 229.228 512 512s-229.228 512-512 512zM745.893 287.917c-7.644-49.585-35.199-157.967-184.543-168.785v-94.937h-105.481v94.192c-63.030 8.859-121.121 25.165-180.858 45.156l31.672 123.943c47.351-18.462 109.714-38.257 164.63-44.607 74.476-8.702 124.727 6.664 129.392 60.639 10.623 94.623-321.225 111.282-318.089 281.988-4.547 125.393 86.431 180.035 177.095 187.6v98.7h105.442v-94.153c59.894-0.784 107.323-13.641 153.498-33.867l-29.241-116.809c-46.41 17.482-93.839 33.867-150.637 33.867-36.767 0-113.987-0.118-116.692-50.761 0-87.332 146.051-91.801 194.538-112.419 35.356-15.013 59.972-29.712 85.137-54.289 43.941-42.921 53.034-98.229 44.137-155.458z"/>
            <glyph unicode="&#xe907;" glyph-name="random" d="M512-64c-282.321 0-512 229.679-512 512s229.679 512 512 512c282.321 0 512-229.679 512-512s-229.679-512-512-512zM673.52 548.382h38.598v-62.753l98.54 110.374-98.52 107.997v-71.648h-38.598c-110.507 0-182.578-82.116-237.639-154.559-49.414-65.12-92.19-126.56-161.117-126.56h-61.45v-83.994h61.43c110.507 0 172.865 87.283 227.946 159.732 49.419 65.158 101.722 121.411 170.81 121.411zM374.055 500.351l14.306 18.695c11.743 15.386 24.028 31.708 37.397 47.904-39.589 37.027-87.245 64.353-150.989 64.353h-61.426v-83.97c0 0 16.566 0.8 61.43 0 43.435-0.932 70.68-18.723 99.281-46.981v0zM712.147 348.009h-38.593c-42.078 0-84.092 23.514-114.192 54.714-2.98-4.013-6.011-7.991-9.093-11.931-13.203-17.367-27.372-36.090-43.010-54.53 40.623-39.681 99.496-72.222 166.291-72.222h38.588v-72.039l98.53 110.557-98.53 107.809v-62.362l0.010 0.005z"/>
            <glyph unicode="&#xe908;" glyph-name="broading" horiz-adv-x="1103" d="M1060.355 960h-42.414v-85.334h-127.243v85.334h-678.629v-85.334h-127.243v85.334h-42.414c-23.37 0-42.414-19.158-42.414-42.666v-938.668c0-23.509 19.045-42.666 42.414-42.666h42.414v42.666h127.243v-42.666h678.629v42.666h127.243v-42.666h42.414c23.37 0 42.414 19.158 42.414 42.666v938.668c0 23.509-19.045 42.666-42.414 42.666zM212.069 106.666h-127.243v128h127.243v-128zM212.069 362.666h-127.243v128h127.243v-128zM212.069 618.665h-127.243v128h127.243v-128zM1017.94 106.666h-127.243v128h127.243v-128zM1017.94 362.666h-127.243v128h127.243v-128zM1017.94 618.665h-127.243v128h127.243v-128zM448.985 684.308c30.452 0 55.138-24.686 55.138-55.138v-362.338c0-30.452-24.686-55.138-55.138-55.138s-55.138 24.686-55.138 55.138v362.338c0 30.452 24.686 55.138 55.138 55.138zM685.292 684.308c30.452 0 55.138-24.686 55.138-55.138v-362.338c0-30.452-24.686-55.138-55.138-55.138s-55.138 24.686-55.138 55.138v362.338c0 30.452 24.686 55.138 55.138 55.138z"/>
            <glyph unicode="&#xe909;" glyph-name="cancelGrop" horiz-adv-x="951" d="M470.579 593.059l-152.047 217.145h83.753c30.295 0 54.857-24.118 54.857-53.865v-48.816h438.857c30.295 0 54.857-24.118 54.857-53.865v-60.599h-480.278zM124.784 959.385l687.616-981.633-59.915-41.953-87.763 125.338h-536.722c-30.295 0-54.857 24.117-54.857 53.865v437.657h247.411l-28.288 40.399h-219.124v163.28c0 29.747 24.562 53.865 54.857 53.865h12.22l-75.17 107.354 59.734 41.826zM843.035 61.137l-344.168 491.522h451.99v-437.657c0-29.748-24.562-53.865-54.857-53.865h-52.965z"/>
            <glyph unicode="&#xe90a;" glyph-name="copyTrigger" horiz-adv-x="878" d="M794.663 515.979c45.322 0 82.339-35.129 83.051-77.417v-99.121l-0.475-98.025c-8.542-170.049-158.272-305.417-341.459-305.417-107.492 0-203.594 46.763-266.239 119.705l-219.038 238.003c-33.221 31.325-70.821 98.515-37.6 129.839s75.201 24.452 108.095 0l97.289-91.737v550.548c0 42.736 37.017 77.641 82.339 77.641s82.339-34.905 82.339-77.641v-298.137c0 42.736 37.017 77.641 82.339 77.641s82.339-34.905 82.339-77.641v-55.266c0 42.736 37.017 77.641 82.339 77.641s82.339-34.905 82.339-77.641v-90.618c0 42.736 37.017 77.641 82.339 77.641zM532.48 401.774c-50.030 0-87.771-16.238-114.103-49.591-23.698-29.403-35.109-67.145-35.109-113.664 0-47.397 10.971-85.138 33.792-113.225 25.893-32.475 64.512-49.152 115.858-49.152 33.792 0 62.757 9.655 86.894 28.965 25.893 20.626 42.13 49.152 49.152 85.577h-46.519c-6.144-24.576-17.115-43.008-32.914-55.296-14.921-11.41-34.231-17.115-57.051-17.115-35.109 0-61.001 10.971-77.678 32.914-15.799 20.626-23.698 49.591-23.698 87.333 0 36.425 7.899 65.39 24.137 86.455 17.115 23.259 42.569 34.67 76.361 34.67 22.821 0 41.253-4.827 56.174-14.921s25.015-25.893 30.281-46.958h46.519c-4.827 31.598-18.871 57.051-41.691 75.483-23.698 19.31-53.979 28.526-90.405 28.526z"/>
            <glyph unicode="&#xe90b;" glyph-name="group" horiz-adv-x="1229" d="M1228.8 663.155v82.84c0 40.665-34.387 73.636-76.8 73.636h-614.4v66.733c0 40.665-34.387 73.636-76.8 73.636h-384c-42.413 0-76.8-32.971-76.8-73.636v-223.209h1228.8zM0 607.928v-598.292c0-40.667 34.387-73.636 76.8-73.636h1075.2c42.413 0 76.8 32.969 76.8 73.636v598.292h-1228.8z"/>
            <glyph unicode="&#xe90c;" glyph-name="pastTrigger" horiz-adv-x="878" d="M794.663 515.979c45.322 0 82.339-35.129 83.051-77.417v-99.121l-0.475-98.025c-8.542-170.049-158.272-305.417-341.459-305.417-107.492 0-203.594 46.763-266.239 119.705l-219.038 238.003c-33.221 31.325-70.821 98.515-37.6 129.839s75.201 24.452 108.095 0l97.289-91.737v550.548c0 42.736 37.017 77.641 82.339 77.641s82.339-34.905 82.339-77.641v-298.137c0 42.736 37.017 77.641 82.339 77.641s82.339-34.905 82.339-77.641v-55.266c0 42.736 37.017 77.641 82.339 77.641s82.339-34.905 82.339-77.641v-90.618c0 42.736 37.017 77.641 82.339 77.641zM367.909 395.63l112.347-313.344h57.929l112.347 313.344h-51.785l-88.649-259.803h-1.317l-89.088 259.803h-51.785z"/>
            <glyph unicode="&#xe90d;" glyph-name="silder" d="M889.23 506.408c41.143 0 74.747-32.787 75.393-72.256v-92.513l-0.431-91.49c-7.755-158.712-143.678-285.055-309.973-285.055-97.58 0-184.821 43.646-241.689 111.725l-198.84 222.136c-30.157 29.236-64.291 91.947-34.133 121.183s68.267 22.822 98.128 0l88.318-85.621v513.845c0 39.887 33.604 72.465 74.747 72.465s74.747-32.578 74.747-72.465v-278.261c0 39.887 33.604 72.465 74.747 72.465s74.747-32.578 74.747-72.465v-51.581c0 39.887 33.604 72.465 74.747 72.465s74.747-32.578 74.747-72.465v-84.577c0 39.887 33.604 72.465 74.747 72.465zM153.924 960v-51.405h153.312v-103.219h-153.312v-50.176l-153.924 102.4 153.924 102.4z"/>
            <glyph unicode="&#xe90e;" glyph-name="taphold" horiz-adv-x="723" d="M656.3 420.223c36.303 0 65.953-28.929 66.523-63.755v-81.629l-0.38-80.726c-6.842-140.040-126.774-251.52-273.506-251.52-86.1 0-163.077 38.511-213.255 98.581l-175.447 196.003c-26.609 25.797-56.727 81.13-30.118 106.927s60.235 20.137 86.583 0l77.927-75.548v453.393c0 35.194 29.65 63.939 65.953 63.939s65.953-28.745 65.953-63.939v-245.525c0 35.194 29.65 63.939 65.953 63.939s65.953-28.745 65.953-63.939v-45.513c0 35.194 29.65 63.939 65.953 63.939s65.953-28.745 65.953-63.939v-74.627c0 35.194 29.65 63.939 65.953 63.939zM259.014 960c116.403 0 210.824-86.888 210.824-194.003 0-71.733-42.857-133.666-105.755-167.262v61.351c31.477 26.502 51.62 64.301 51.62 106.681 0 80.035-70.554 144.962-157.53 144.962-86.974 0-157.525-64.927-157.525-144.962 0-43.25 20.983-81.628 53.61-108.226v-59.953c-63.104 33.503-106.067 95.532-106.067 167.409 0 107.115 94.42 194.003 210.823 194.003z"/>
            <glyph unicode="&#xe90f;" glyph-name="trigger-click" d="M1009.86 296.504l-564.615 335.604c-20.592 12.238-33.853 2.885-29.478-20.784l120.064-648.993c4.381-23.673 19.217-26.926 32.974-7.233 0 0 76.711 109.851 139.609 176.913l120.702-179.582c11.514-17.123 34.764-21.594 51.664-9.927l40.508 27.955c16.905 11.667 21.318 35.228 9.804 52.351l-120.622 179.457c80.627 33.412 194.6 61.562 194.6 61.562 23.225 5.733 25.382 20.44 4.79 32.678zM414.937 20.264c-2.218 0.734-4.536 1.256-6.916 1.557-194.891 45.65-335.907 224.31-333.627 430.673 2.652 240.965 198.287 434.817 436.092 432.127 225.045-2.55 408.448-180.222 425.229-403.506-0.006-0.226-0.024-0.446-0.024-0.666-0.025-2.254 0.154-4.452 0.507-6.599 2.281-14.078 12.233-25.569 25.408-29.858 2.225-0.515 4.449-1.005 6.68-1.488 0.496-0.062 1.004-0.107 1.5-0.15 0.929-0.082 1.871-0.145 2.826-0.157 0.979-0.012 1.945 0.025 2.912 0.088 19.271 1.294 34.615 17.419 34.832 37.318 0.006 0.182-0.018 0.364-0.018 0.546 0 1.645-0.117 3.265-0.322 4.86-3.818 53.996-15.958 106.559-36.264 156.769-24.801 61.305-60.65 116.506-106.555 164.075-45.907 47.566-99.572 85.116-159.501 111.606-62.062 27.434-128.139 41.735-196.379 42.507-68.246 0.776-134.615-12.028-197.271-38.049-60.5-25.127-114.977-61.452-161.918-107.966-46.948-46.517-84.005-100.896-110.143-161.623-27.074-62.894-41.184-129.843-41.953-198.991-1.382-125.474 42.504-246.714 123.578-341.401 70.552-82.39 164.589-139.476 268.3-163.67 2.144-0.697 4.388-1.192 6.68-1.494 1.419-0.176 2.857-0.289 4.319-0.301 20.617-0.239 37.522 16.508 37.752 37.399 0.185 16.941-10.64 31.396-25.723 36.394z"/>
            <glyph unicode="&#xe910;" glyph-name="trigger-rock" horiz-adv-x="717" d="M669.479 681.856l-293.506 174.072c-26.526 15.708-60.114 5.879-75.081-22.010l-280.072-521.8c-14.957-27.824-5.594-63.137 20.932-78.856l293.507-174.085c26.492-15.674 60.102-5.833 75.058 22.033l280.082 521.77c14.977 27.891 5.572 63.181-20.921 78.877zM282.466 192.375c-13.504-25.146-43.759-34.051-67.643-19.898-23.947 14.193-32.399 46.002-18.892 71.147 13.454 25.081 43.739 33.941 67.686 19.769 23.884-14.153 32.304-45.939 18.849-71.019v0zM411.353 231.78l-268.379 159.193 210.151 391.533 268.397-159.202-210.17-391.524zM110.463 690.379c9.652-5.725 21.852-2.122 27.281 7.99l82.827 154.305c33.112 61.701 60.922 65.106 62.88 65.236 10.647-0.391 19.824 8.109 20.663 19.354 0.891 11.571-7.343 21.76-18.354 22.653-5.272 0.47-52.645 1.775-100.073-86.583l-82.816-154.302c-5.437-10.125-2.051-22.944 7.592-28.652zM37.497 660.436l93.846 174.832c5.44 10.124 2.010 22.959-7.643 28.683-9.601 5.684-21.834 2.123-27.271-8.001l-93.848-174.843c-5.438-10.125-1.99-22.947 7.602-28.63 9.664-5.728 21.864-2.177 27.314 7.958v0zM606.382 205.654c-9.631 5.705-21.894 2.112-27.322-8.011l-82.837-154.314c-33.103-61.655-60.881-65.075-62.87-65.27-10.626 0.437-19.761-8.055-20.653-19.333-0.641-8.445 3.585-16.154 10.173-20.029 2.522-1.504 5.331-2.396 8.223-2.611 5.221-0.48 52.596-1.786 100.031 86.583l82.839 154.293c5.425 10.125 2.027 22.99-7.583 28.692v0zM706.621 243.581c-9.632 5.703-21.812 2.135-27.261-8.011l-93.837-174.847c-5.447-10.121-2.072-22.967 7.558-28.692 9.634-5.683 21.836-2.070 27.283 8.055l93.837 174.844c5.447 10.146 2.051 22.946-7.581 28.651v0z"/>
            <glyph unicode="&#xe911;" glyph-name="anim-iteration" d="M1022.493 771.968v51.143c0 136.381-117.437 136.381-136.248 136.381h-50.839c-1.779 0.127-3.305 0.509-5.084 0.509h-637.644c-1.779 0-3.432-0.509-5.084-0.509h-50.839c-18.81 0-136.248 0-136.248-136.381v-51.016c-0.127-1.654-0.508-3.308-0.508-4.962v-638.267c0-1.654 0.508-3.308 0.508-4.962v-51.016c0-136.381 136.248-136.381 136.248-136.381h50.839c1.779-0.127 3.305-0.509 5.084-0.509h637.644c1.779 0 3.305 0.509 5.084 0.509h50.966c39.273 0 66.98 11.45 86.934 27.734 1.271 1.018 2.542 1.908 3.813 2.926 4.575 3.944 8.77 8.269 12.455 12.722 1.017 1.272 1.906 2.672 2.923 3.944 30.122 39.311 30.249 89.182 30.249 89.182v51.016c0.127 1.654 0.508 3.181 0.508 4.962v638.267c-0.254 1.399-0.635 3.053-0.763 4.707v0zM156.837 77.342h-102.821v102.922h102.821v-102.922zM156.837 236.877h-102.821v102.922h102.821v-102.922zM156.837 396.412h-102.821v102.922h102.821v-102.922zM156.837 556.074h-102.821v102.922h102.821v-102.922zM156.837 715.609h-102.821v102.922h102.821v-102.922zM800.328 51.898h-580.323v791.949h580.323v-791.949zM960.342 78.487h-102.821v102.922h102.821v-102.922zM960.342 238.022h-102.821v102.922h102.821v-102.922zM960.342 397.684h-102.821v102.794h102.821v-102.794zM960.342 557.219h-102.821v102.922h102.821v-102.922zM960.342 716.754h-102.821v102.922h102.821v-102.922zM416.914 667.429v0c28.277 0 51.2-22.923 51.2-51.2v-336.457c0-28.277-22.923-51.2-51.2-51.2v0c-28.277 0-51.2 22.923-51.2 51.2v336.457c0 28.277 22.923 51.2 51.2 51.2zM636.343 667.429v0c28.277 0 51.2-22.923 51.2-51.2v-336.457c0-28.277-22.923-51.2-51.2-51.2v0c-28.277 0-51.2 22.923-51.2 51.2v336.457c0 28.277 22.923 51.2 51.2 51.2z"/>
            <glyph unicode="&#xe912;" glyph-name="anim-iteration2" d="M1022.493 771.968v51.143c0 136.381-117.437 136.381-136.248 136.381h-50.839c-1.779 0.127-3.305 0.509-5.084 0.509h-637.644c-1.779 0-3.432-0.509-5.084-0.509h-50.839c-18.81 0-136.248 0-136.248-136.381v-51.016c-0.127-1.654-0.508-3.308-0.508-4.962v-638.267c0-1.654 0.508-3.308 0.508-4.962v-51.016c0-136.381 136.248-136.381 136.248-136.381h50.839c1.779-0.127 3.305-0.509 5.084-0.509h637.644c1.779 0 3.305 0.509 5.084 0.509h50.966c39.273 0 66.98 11.45 86.934 27.734 1.271 1.018 2.542 1.908 3.813 2.926 4.575 3.944 8.77 8.269 12.455 12.722 1.017 1.272 1.906 2.672 2.923 3.944 30.122 39.311 30.249 89.182 30.249 89.182v51.016c0.127 1.654 0.508 3.181 0.508 4.962v638.267c-0.254 1.399-0.635 3.053-0.763 4.707v0zM156.837 77.342h-102.821v102.922h102.821v-102.922zM156.837 236.877h-102.821v102.922h102.821v-102.922zM156.837 396.412h-102.821v102.922h102.821v-102.922zM156.837 556.074h-102.821v102.922h102.821v-102.922zM156.837 715.609h-102.821v102.922h102.821v-102.922zM800.328 51.898h-580.323v791.949h580.323v-791.949zM960.342 78.487h-102.821v102.922h102.821v-102.922zM960.342 238.022h-102.821v102.922h102.821v-102.922zM960.342 397.684h-102.821v102.794h102.821v-102.794zM960.342 557.219h-102.821v102.922h102.821v-102.922zM960.342 716.754h-102.821v102.922h102.821v-102.922z"/>
            <glyph unicode="&#xe913;" glyph-name="anim-start" d="M1022.493 771.968v51.143c0 136.381-117.437 136.381-136.248 136.381h-50.839c-1.779 0.127-3.305 0.509-5.084 0.509h-637.644c-1.779 0-3.432-0.509-5.084-0.509h-50.839c-18.81 0-136.248 0-136.248-136.381v-51.016c-0.127-1.654-0.508-3.308-0.508-4.962v-638.267c0-1.654 0.508-3.308 0.508-4.962v-51.016c0-136.381 136.248-136.381 136.248-136.381h50.839c1.779-0.127 3.305-0.509 5.084-0.509h637.644c1.779 0 3.305 0.509 5.084 0.509h50.966c39.273 0 66.98 11.45 86.934 27.734 1.271 1.018 2.542 1.908 3.813 2.926 4.575 3.944 8.77 8.269 12.455 12.722 1.017 1.272 1.906 2.672 2.923 3.944 30.122 39.311 30.249 89.182 30.249 89.182v51.016c0.127 1.654 0.508 3.181 0.508 4.962v638.267c-0.254 1.399-0.635 3.053-0.763 4.707v0zM156.837 77.342h-102.821v102.922h102.821v-102.922zM156.837 236.877h-102.821v102.922h102.821v-102.922zM156.837 396.412h-102.821v102.922h102.821v-102.922zM156.837 556.074h-102.821v102.922h102.821v-102.922zM156.837 715.609h-102.821v102.922h102.821v-102.922zM800.328 51.898h-580.323v791.949h580.323v-791.949zM960.342 78.487h-102.821v102.922h102.821v-102.922zM960.342 238.022h-102.821v102.922h102.821v-102.922zM960.342 397.684h-102.821v102.794h102.821v-102.794zM960.342 557.219h-102.821v102.922h102.821v-102.922zM960.342 716.754h-102.821v102.922h102.821v-102.922zM452.083 274.407v0l197.508 139.688c20.844 15.012 20.844 52.288 0 67.3l-197.508 140.070c-20.844 15.012-55.16 4.198-55.16-25.699v-296.043c0-29.897 34.443-40.202 55.16-25.317v0z"/>
            <glyph unicode="&#xe914;" glyph-name="photo-wall" horiz-adv-x="1229" d="M1220.204 768.658v0c6.773-9.638 9.672-21.706 8.070-33.585l-60.257-444.722 18.984-109.68c4.33-24.482-10.904-48.053-34.079-52.731l-7.071-1.46-12.42-91.508c-2.899-22.146-20.784-38.673-41.965-38.777-2.058 0.002-4.113 0.165-6.149 0.487l-337.393 51.919-569.474-111.789c-2.534-0.512-5.106-0.784-7.686-0.811-8.637-0.003-17.061 2.832-24.103 8.112-9.287 6.842-15.636 17.281-17.662 29.042l-128.292 742.285c-2.045 11.802 0.384 23.98 6.764 33.91 6.348 9.884 16.189 16.664 27.315 18.821l178.773 35.046 11.636 85.992c1.524 11.828 7.459 22.525 16.487 29.714s20.402 10.277 31.596 8.576l321.99-49.486 413.959 81.286c23.145 4.319 45.241-11.931 49.42-36.344l20.613-119.252 113.028-17.361c11.154-1.769 21.19-8.128 27.915-17.685zM1119.903 568.606l18.338 134.666-834.897 128.339-1.537-11.033-12.789-94.591-68.404-505.079 834.805-128.338 2.275 16.712 12.805 94.428 11.437 84.856 37.968 280.040zM487.282 531.126v0c-20.375 3.108-38.73 14.675-50.988 32.131s-17.404 39.357-14.295 60.837c4.549 32.868 27.427 59.596 57.947 67.698s62.656-4.022 81.395-30.708c18.739-26.686 20.382-62.665 4.161-91.129s-47.103-43.794-78.219-38.828zM956.595 454.058l30.252-265.276-678.598 109.193c67.051 181.231 287.927 48.512 287.927 48.512l185.444 226.985 97.564-204.919 77.412 85.505z"/>
            <glyph unicode="&#xe915;" glyph-name="apply" horiz-adv-x="1252" d="M1147.155 960c57.5 0.057 104.199-45.588 104.401-102.042v-819.917c-0.201-56.454-46.901-102.098-104.401-102.042h-1042.754c-57.5-0.057-104.199 45.588-104.401 102.042v819.917c0.201 56.454 46.901 102.098 104.401 102.042h1042.754zM227.556 618.667h796.444c31.419 0 56.889 25.47 56.889 56.889s-25.47 56.889-56.889 56.889h-796.444c-31.419 0-56.889-25.47-56.889-56.889s25.47-56.889 56.889-56.889zM227.556 504.889c-31.419 0-56.889-25.47-56.889-56.889s25.47-56.889 56.889-56.889h398.222c31.419 0 56.889 25.47 56.889 56.889s-25.47 56.889-56.889 56.889h-398.222zM227.556 277.333c-31.419 0-56.889-25.47-56.889-56.889s25.47-56.889 56.889-56.889h227.556c31.419 0 56.889 25.47 56.889 56.889s-25.47 56.889-56.889 56.889h-227.556zM1070.883 399.409l-95.456 95.439c-13.529 13.435-35.38 13.381-48.842-0.121l-36.368-36.386 24.222-24.102 0.518 0.104h0.017l119.747-119.782 36.023 36.023c13.5 13.456 13.554 35.302 0.121 48.825h0.017zM772.231 133.774l-7.343 7.36-55.287 55.494-26.935 28.715v-84.295c0-18.97 15.428-34.381 34.381-34.381h83.258l-6.289 6.047-21.786 21.061zM890.544 409.931l-24.43 24.326-172.857-172.857 144.143-144.143 172.218 172.218-23.721 25.104-95.352 95.352z"/>
            <glyph unicode="&#xe916;" glyph-name="function" d="M372.503 960h-279.552c-51.304-0.077-92.874-41.648-92.951-92.951v-279.552c0.077-51.304 41.648-92.874 92.951-92.951h279.552c51.304 0.077 92.874 41.648 92.951 92.951v279.552c-0.077 51.304-41.648 92.874-92.951 92.951zM372.503 401.455h-279.552c-51.304-0.077-92.874-41.648-92.951-92.951v-279.552c0.077-51.304 41.648-92.874 92.951-92.951h279.552c51.304 0.077 92.874 41.648 92.951 92.951v279.552c-0.077 51.304-41.648 92.874-92.951 92.951zM931.049 960h-279.552c-51.304-0.077-92.874-41.648-92.951-92.951v-279.552c0.077-51.304 41.648-92.874 92.951-92.951h279.552c51.304 0.077 92.874 41.648 92.951 92.951v279.552c-0.077 51.304-41.648 92.874-92.951 92.951zM791.273 308.364c-25.706 0-46.545-20.839-46.545-46.545v-279.273c0-25.706 20.839-46.545 46.545-46.545s46.545 20.839 46.545 46.545v279.273c0 25.706-20.839 46.545-46.545 46.545zM605.091 308.364c-25.706 0-46.545-20.839-46.545-46.545v-279.273c0-25.706 20.839-46.545 46.545-46.545s46.545 20.839 46.545 46.545v279.273c0 25.706-20.839 46.545-46.545 46.545zM977.455 401.455c-25.706 0-46.545-20.839-46.545-46.545v-372.364c0-25.706 20.839-46.545 46.545-46.545s46.545 20.839 46.545 46.545v372.364c0 25.706-20.839 46.545-46.545 46.545z"/>
            <glyph unicode="&#xe917;" glyph-name="help" d="M512-12.8c254.515 0 460.8 206.285 460.8 460.8s-206.285 460.8-460.8 460.8-460.8-206.285-460.8-460.8 206.285-460.8 460.8-460.8zM512-64c-282.778 0-512 229.222-512 512s229.222 512 512 512 512-229.222 512-512-229.222-512-512-512zM471.296 140.8v87.808h86.63v-87.808h-86.63zM514.611 755.2c96.205-0.922 173.619-79.36 173.312-175.565-0.973-37.12-14.746-72.755-39.014-100.915l-39.014-39.475c-37.376-29.235-57.037-75.674-52.019-122.88h-86.63v21.965c-1.331 46.541 17.613 91.392 51.968 122.88l52.019 57.037c17.92 15.206 27.546 37.99 25.958 61.44 0 47.821-38.81 86.63-86.63 86.63s-86.63-38.81-86.63-86.63h-86.682c-0.358 96.205 77.056 174.643 173.312 175.565z"/>
            <glyph unicode="&#xe918;" glyph-name="page" horiz-adv-x="819" d="M716.8-64h-614.4c-56.484 0.169-102.231 45.916-102.4 102.4v819.2c0.169 56.484 45.916 102.231 102.4 102.4h51.2v-358.4l128 76.8 128-76.8v358.4h307.2c56.484-0.169 102.231-45.916 102.4-102.4v-819.2c-0.169-56.484-45.916-102.231-102.4-102.4zM517.12 355.84l-153.6-199.68-107.52 133.12-153.6-199.68h614.4l-199.68 266.24z"/>
            <glyph unicode="&#xe9eb;" glyph-name="close" horiz-adv-x="1434" d="M1419.264 443.392c-13.831-28.893-27.47-52.98-42.515-76.067-76.536-141.698-195.154-255.47-338.994-325.497-98.395-52.121-209.821-81.563-328.124-81.563s-229.729 29.442-327.352 81.398c-144.916 70.183-263.852 183.943-340.336 324.184-15.498 24.565-29.137 48.652-41.249 73.617-0.695 5.566-0.695 6.897 0.329 8.536-1.024 1.638-1.024 3.174-2.048 4.813 13.874 28.881 27.511 52.932 42.534 75.998 76.903 141.726 195.841 255.521 339.974 325.56 98.419 52.127 209.845 81.569 328.148 81.569s229.729-29.442 327.352-81.398c144.335-70.199 262.647-184.027 338.3-324.261 16.608-25.067 30.595-49.135 42.625-74.317 0.331-4.789 0.331-6.325-0.693-7.963 1.024-1.638 1.024-2.97 2.048-4.608zM709.632 781.312c-167.499-14.447-297.986-153.978-297.986-323.986 0-9.085 0.373-18.083 1.103-26.98 2.037-174.626 145.036-316.319 321.13-316.319 1.916 0 3.828 0.017 5.736 0.050 167.294 14.477 297.837 154.085 297.837 324.182 0 3.353-0.051 6.695-0.151 10.024-6.354 179.184-148.616 323.652-326.774 333.502zM709.756 285.39c87.257 1.318 157.585 72.462 157.585 160.033 0 0.726-0.005 1.451-0.041 1.58 0.255 3.605 0.385 7.245 0.385 10.914 0 84.096-68.173 152.269-152.269 152.269s-152.269-68.173-152.269-152.269c0-1.399 0.019-2.794 0.078-3.495-0.239-3.57-0.361-7.172-0.361-10.803 0-83.554 64.355-152.078 146.767-158.743zM1432.576 101.786l-1327.104 858.419-94.208-167.014 1327.104-858.214z"/>
            <glyph unicode="&#xe9ec;" glyph-name="menu-more" horiz-adv-x="4096" d="M512 960c282.77 0 512-229.23 512-512s-229.23-512-512-512c-282.77 0-512 229.23-512 512s229.23 512 512 512zM2048 960c282.77 0 512-229.23 512-512s-229.23-512-512-512c-282.77 0-512 229.23-512 512s229.23 512 512 512zM3584 960c282.77 0 512-229.23 512-512s-229.23-512-512-512c-282.77 0-512 229.23-512 512s229.23 512 512 512z"/>
            <glyph unicode="&#xe9ed;" glyph-name="new-text" d="M553.691 633.125v-454.217h-84.114v454.217h-226.743v84.114h538.331v-84.114h-227.474zM914.286-64h-802.377c-1.451-0.070-3.152-0.11-4.863-0.11-59.139 0-107.081 47.942-107.081 107.081 0 0.965 0.013 1.927 0.038 2.885l-0.003 799.383c-0.063 1.389-0.098 3.018-0.098 4.656 0 60.876 49.35 110.226 110.226 110.226 1.141 0 2.277-0.017 3.409-0.052l797.091 0.004c1.535 0.078 3.332 0.122 5.14 0.122 59.786 0 108.251-48.466 108.251-108.251 0-0.737-0.007-1.473-0.022-2.207l0.002-802.121c0.069-1.431 0.108-3.109 0.108-4.795 0-59.018-47.844-106.862-106.862-106.862-1.041 0-2.078 0.015-3.112 0.044zM912.091 784.457c0.012 0.454 0.019 0.989 0.019 1.526 0 34.417-27.901 62.318-62.318 62.318-0.984 0-1.963-0.023-2.936-0.068l-672.045 0.005c-0.542 0.017-1.18 0.027-1.82 0.027-33.771 0-61.147-27.377-61.147-61.147 0-0.987 0.023-1.969 0.070-2.944l-0.005-655.295c-0.066-1.074-0.103-2.329-0.103-3.593 0-34.619 28.064-62.683 62.683-62.683 0.371 0 0.74 0.003 1.109 0.010l673.59-0.001c0.605-0.022 1.316-0.034 2.030-0.034 33.65 0 60.928 27.278 60.928 60.928 0 0.912-0.020 1.82-0.060 2.722l0.004 658.157z"/>
            <glyph unicode="&#xe9ee;" glyph-name="folder-close" horiz-adv-x="1195" d="M1194.667 663.155v82.84c0 40.665-33.432 73.636-74.667 73.636h-597.333v66.733c0 40.665-33.432 73.636-74.667 73.636h-373.333c-41.234 0-74.667-32.971-74.667-73.636v-223.209h1194.667zM0 607.928v-598.292c0-40.667 33.432-73.636 74.667-73.636h1045.333c41.234 0 74.667 32.969 74.667 73.636v598.292h-1194.667z"/>
            <glyph unicode="&#xe9ef;" glyph-name="folder-open" horiz-adv-x="1195" d="M1047.406 9.475c0-40.644-32.97-73.475-73.536-73.475h-918.745l128.664 606.354c0 40.605 32.768 73.513 73.334 73.513h845.403c40.574 0 73.411-32.908 73.411-73.513l-128.531-532.879zM202.067 671.018h826.92v72.178c0 40.605-32.973 73.513-73.475 73.513h-440.984v66.613c0 40.536-32.908 73.475-73.475 73.475h-367.578c-40.574 0-73.475-32.939-73.475-73.475v-873.847l128.531 588.004c0 40.607 32.97 73.539 73.536 73.539z"/>
            <glyph unicode="&#xe9f0;" glyph-name="packet" horiz-adv-x="939" d="M794.181-63.986h-649.759c-79.752 0-144.421 61.125-144.421 136.536v682.679l433.195-136.536h72.21l433.195 136.536v-682.615c0-75.412-64.669-136.6-144.421-136.6v0zM507.142 279.5l104.779 0.256c26.228-0.256 35.571 12.622 36.105 28.128 0.401 13.454-13.014 38.827-36.706 39.404h-104.779v23.898c0 0 79.485 76.757 100.173 94.505 20.555 17.747 25.761 31.716 13.081 46.067-12.88 14.672-35.637 13.776-52.256 0.769-16.884-13.263-98.105-84.574-98.105-84.574s-69.741 68.043-84.824 81.755c-13.548 12.302-42.311 24.283-57.795 7.689-16.151-17.3-3.604-38.955 6.541-48.438 10.078-9.355 97.304-96.556 97.304-96.556l-0.133-26.205h-109.317c-16.151 0-30.432-27.166-29.898-41.647 0.534-14.352 12.747-25.628 29.898-25.628s108.983 0.576 108.983 0.576l-0.267-73.17h-113.254c-16.151 0-29.698-15.377-30.366-29.858-0.6-14.48 12.079-34.022 30.366-34.022h112.987c0 0-0.201-25.052 0.467-35.496 1.535-23.322 17.685-32.805 39.308-33.188 21.623-0.385 36.906 16.722 36.906 31.972-0.066 12.622-0.401 36.712-0.401 36.712s94.033 0.128 111.786 0c17.753-0.129 31.033 16.851 30.3 34.022-0.668 17.235-11.679 30.434-38.641 30.434h-102.843l0.6 72.592 0.002 0.001zM505.406 686.928h-72.211l-433.195 136.536c0 75.411 64.669 136.536 144.421 136.536h649.825c79.752 0 144.421-61.124 144.421-136.536l-433.261-136.536z"/>
            <glyph unicode="&#xe9f1;" glyph-name="board" d="M824.812 448.032c-45.496 0-85.327 39.933-85.327 85.327 0 45.496 39.831 85.327 85.327 85.327 45.531 0 85.327-39.831 85.327-85.327 0-45.394-39.831-85.327-85.327-85.327zM654.192 675.617c-45.531 0-85.327 39.831-85.327 85.327 0 45.462 39.797 85.293 85.327 85.293 45.497 0 85.293-39.831 85.293-85.293 0-45.497-39.797-85.327-85.293-85.327zM369.779 675.617c-45.565 0-85.327 39.831-85.327 85.327 0 45.462 39.763 85.293 85.327 85.293 45.496 0 85.327-39.831 85.327-85.293 0-45.497-39.831-85.327-85.327-85.327zM199.124 448.032c-45.565 0-85.293 39.933-85.293 85.327 0 45.496 39.728 85.327 85.293 85.327 45.531 0 85.327-39.831 85.327-85.327 0-45.394-39.797-85.327-85.327-85.327zM511.934 959.996c-135.948 0.556-266.488-53.205-362.615-149.339s-149.88-226.677-149.314-362.625c-0.556-135.942 53.2-266.477 149.327-362.603s226.661-149.883 362.603-149.327c45.599 0 85.327 39.899 85.327 85.327 0 22.834-5.666 39.899-22.663 56.896-11.502 17.065-22.834 34.165-22.834 56.828 0 45.565 39.831 85.327 85.327 85.327h102.393c159.323 0 284.413 125.158 284.413 284.481 0 250.282-227.483 455.033-511.964 455.033v0z"/>
            <glyph unicode="&#xe9f2;" glyph-name="interact" horiz-adv-x="1109" d="M1066.667 960h-42.667v-85.333h-128v85.333h-682.667v-85.333h-128v85.333h-42.667c-23.509 0-42.667-19.157-42.667-42.667v-938.667c0-23.509 19.157-42.667 42.667-42.667h42.667v42.667h128v-42.667h682.667v42.667h128v-42.667h42.667c23.509 0 42.667 19.157 42.667 42.667v938.667c0 23.509-19.157 42.667-42.667 42.667zM213.333 106.667h-128v128h128v-128zM213.333 362.667h-128v128h128v-128zM213.333 618.667h-128v128h128v-128zM750.421 420.011l-277.461-161.835c-4.523-2.261-9.472-3.328-14.379-3.328-5.888 0-11.605 1.579-16.811 4.651-9.387 5.675-15.104 15.829-15.104 26.667v323.627c0 10.88 5.717 21.035 15.104 26.709 9.472 5.717 21.291 6.229 31.147 1.28l277.461-161.792c10.795-5.333 17.621-16.128 17.621-27.989s-6.827-22.656-17.579-27.989zM1024 106.667h-128v128h128v-128zM1024 362.667h-128v128h128v-128zM1024 618.667h-128v128h128v-128z"/>
            <glyph unicode="&#xe9f4;" glyph-name="code" d="M512-64c-282.77 0-512 229.23-512 512s229.23 512 512 512c282.77 0 512-229.23 512-512s-229.23-512-512-512zM365.948 274.285c9.382 0 18.764 4.133 25.485 12.288 12.521 15.104 11.258 38.217-2.832 51.639l-115.245 109.787 124.831 118.966c14.090 13.422 15.352 36.535 2.832 51.639s-34.082 16.384-48.138 3.035l-182.215-173.64 172.628-164.497c6.482-6.181 14.602-9.216 22.653-9.216zM671.118 274.358l182.215 173.64-172.628 164.497c-14.090 13.422-35.651 12.069-48.138-3.035-12.521-15.104-11.258-38.217 2.832-51.639l115.245-109.823-124.831-118.93c-14.090-13.422-15.352-36.535-2.832-51.639 6.721-8.155 16.103-12.288 25.485-12.288 8.051 0 16.171 3.035 22.653 9.216zM511.522 222.537l68.233 438.855c3.105 19.931-9.45 38.766-28.044 42.094-18.662 3.365-36.197-10.13-39.234-30.062l-68.233-438.855c-3.105-19.931 9.45-38.766 28.044-42.094 1.91-0.329 3.753-0.475 5.629-0.475 16.376 0 30.841 12.69 33.605 30.537z"/>
        </font>
</defs>
</svg>
